<?xml version="1.0" encoding="utf-8"?>
<!-- Generator: Adobe Illustrator 19.2.0, SVG Export Plug-In . SVG Version: 6.00 Build 0)  -->
<svg version="1.1" id="Capa_1" xmlns="http://www.w3.org/2000/svg" xmlns:xlink="http://www.w3.org/1999/xlink" x="0px" y="0px"
	 viewBox="0 0 119 56.9" style="enable-background:new 0 0 119 56.9;" xml:space="preserve">
<style type="text/css">
	.st0{fill:#FFFFFF;}
</style>
<g>
	<path d="M28.3,56.7C44,56.7,56.7,44,56.7,28.3C56.7,12.7,44,0,28.3,0C12.7,0,0,12.7,0,28.3C0,44,12.7,56.7,28.3,56.7"/>
	<path d="M90.6,56.9c15.7,0,28.3-12.7,28.3-28.3c0-15.7-12.7-28.3-28.3-28.3C75,0.2,62.3,12.9,62.3,28.6
		C62.3,44.2,75,56.9,90.6,56.9"/>
	<path class="st0" d="M38.3,29.4h-2L35,31.3h1.3L38.3,29.4z M37.4,34.7h-2.5c0.1-0.8,0.6-1.3,1.3-1.3S37.4,33.9,37.4,34.7 M39,35.9
		v-1.2c0-1.7-1.3-2.7-2.8-2.7c-1.3,0-2.8,0.8-2.8,3.3c0,2.7,1.6,3.3,3,3.3c0.9,0,1.8-0.3,2.5-1.2l-1.1-0.9c-0.4,0.4-0.9,0.7-1.4,0.7
		c-0.8,0-1.4-0.5-1.4-1.3H39z M31.7,38.6v-1.4h-0.6c-0.2,0-0.3-0.1-0.3-0.4v-3.6h0.9V32h-0.9v-1.9h-1.5V32h-0.7v1.2h0.7v3.7
		c0,1.1,0.7,1.7,1.7,1.7H31.7z M26.6,32H25v6.6h1.5V32z M26.6,29.5H25v1.5h1.5V29.5z M23.2,37.5l-1.1-1c-0.4,0.5-0.8,0.7-1.3,0.7
		c-1,0-1.6-0.6-1.6-1.8c0-1.3,0.6-1.8,1.6-1.8c0.5,0,0.9,0.2,1.3,0.7l1.1-1c-0.7-0.7-1.5-1.2-2.5-1.2c-1.6,0-3.1,0.9-3.1,3.3
		c0,2.4,1.5,3.3,3.1,3.3C21.7,38.7,22.5,38.2,23.2,37.5"/>
	<path class="st0" d="M31.3,21.1v-0.5h-1.5v6.5h1.5v-3.9c0-0.8,0.5-1.2,1.2-1.2c0.7,0,1.2,0.5,1.2,1.2v3.9h1.5v-3.9
		c0-0.8,0.5-1.2,1.2-1.2c0.7,0,1.2,0.5,1.2,1.2v3.9H39v-4.3c0-1.5-1.2-2.3-2.3-2.3c-0.9,0-1.5,0.2-2.1,0.8c-0.5-0.4-0.9-0.8-1.8-0.8
		C32.2,20.5,31.7,20.7,31.3,21.1 M19.6,21.1v-0.5H18v6.5h1.5v-3.9c0-0.8,0.5-1.2,1.2-1.2c0.7,0,1.2,0.5,1.2,1.2v3.9h1.5v-3.9
		c0-0.8,0.5-1.2,1.2-1.2c0.7,0,1.2,0.5,1.2,1.2v3.9h1.5v-4.3c0-1.5-1.2-2.3-2.3-2.3c-0.9,0-1.5,0.2-2.1,0.8
		c-0.4-0.4-0.9-0.8-1.8-0.8C20.5,20.5,20,20.7,19.6,21.1"/>
	<path class="st0" d="M94.9,30.6l-3.9,8h-3.7l3.9-7.6c-0.4,0.2-0.9,0.2-1.4,0.2c-2.5,0-4.9-2.1-4.9-5.5c0-3.6,2.5-5.8,5.8-5.8
		c3.3,0,5.8,2.1,5.8,5.7C96.4,27.4,95.7,29,94.9,30.6 M90.6,23c-1.4,0-2.4,1-2.4,2.7c0,1.6,1,2.7,2.4,2.7c1.4,0,2.4-1,2.4-2.7
		C93,24,92,23,90.6,23"/>
</g>
</svg>
