<?xml version="1.0" standalone="no"?>
<!DOCTYPE svg PUBLIC "-//W3C//DTD SVG 20010904//EN"
 "http://www.w3.org/TR/2001/REC-SVG-20010904/DTD/svg10.dtd">
<svg version="1.0" xmlns="http://www.w3.org/2000/svg"
 width="288.000000pt" height="288.000000pt" viewBox="0 0 288.000000 288.000000"
 preserveAspectRatio="xMidYMid meet">
<metadata>
Created by potrace 1.11, written by Peter Selinger 2001-2013
</metadata>
<g transform="translate(0.000000,288.000000) scale(0.100000,-0.100000)"
fill="#000000" stroke="none">
<path d="M1290 2834 c-322 -40 -602 -176 -831 -404 -199 -199 -317 -416 -381
-701 -33 -150 -33 -408 0 -558 64 -285 182 -502 381 -701 203 -203 436 -327
721 -387 133 -28 403 -25 539 5 285 64 500 181 702 382 199 198 317 416 381
701 19 87 23 133 23 279 0 194 -18 301 -77 469 -133 377 -452 700 -828 836
-147 53 -272 76 -440 80 -85 2 -171 1 -190 -1z m-278 -1015 c3 -9 9 -9 25 0
30 15 79 14 113 -4 27 -14 33 -14 60 0 48 25 105 20 142 -14 l33 -29 3 -131 4
-131 -36 0 -36 0 0 103 c0 118 -12 147 -60 147 -52 0 -60 -19 -60 -141 l0
-109 -35 0 -35 0 0 103 c0 121 -11 147 -65 147 -48 0 -55 -20 -55 -144 l0
-106 -35 0 -35 0 0 160 0 160 34 0 c19 0 36 -5 38 -11z m570 0 c3 -9 9 -9 25
0 30 16 79 14 119 -5 30 -14 35 -14 56 0 26 19 90 21 121 5 50 -26 57 -45 57
-181 l0 -128 -35 0 -35 0 0 106 c0 124 -7 144 -55 144 -54 0 -65 -26 -65 -147
l0 -103 -35 0 -35 0 0 109 c0 122 -8 141 -60 141 -48 0 -60 -29 -60 -147 l0
-103 -35 0 -35 0 0 160 0 160 34 0 c19 0 36 -5 38 -11z m298 -464 c-35 -36
-51 -45 -78 -45 l-33 0 32 45 c30 42 35 45 78 45 l45 0 -44 -45z m-532 3 c-3
-29 -7 -33 -35 -36 -32 -3 -33 -2 -33 32 0 35 1 36 36 36 34 0 35 -1 32 -32z
m202 -43 c0 -41 2 -45 25 -45 21 0 25 -5 25 -30 0 -25 -4 -30 -25 -30 l-26 0
3 -97 c3 -93 4 -98 26 -101 17 -3 22 -10 22 -33 0 -25 -4 -29 -29 -29 -73 0
-91 33 -91 165 0 78 -3 95 -15 95 -10 0 -15 10 -15 30 0 20 5 30 15 30 11 0
15 12 15 45 0 45 0 45 35 45 35 0 35 0 35 -45z m-433 -60 c61 -26 67 -34 42
-61 -20 -22 -24 -22 -50 -9 -40 21 -66 19 -94 -10 -32 -31 -35 -101 -6 -136
23 -28 81 -31 109 -6 18 16 20 16 40 -6 12 -13 22 -26 22 -29 0 -19 -72 -48
-116 -48 -94 0 -144 56 -144 163 0 65 28 113 80 139 43 22 70 22 117 3z m233
-145 l0 -160 -35 0 -35 0 0 160 0 160 35 0 35 0 0 -160z m535 140 c48 -23 75
-70 75 -130 l0 -40 -100 0 c-108 0 -117 -5 -78 -47 25 -27 64 -30 96 -8 19 14
24 14 47 -1 33 -21 32 -30 -7 -55 -43 -27 -146 -23 -179 6 -30 28 -49 76 -49
129 0 131 89 197 195 146z"/>
<path d="M1777 1182 c-31 -34 -21 -42 48 -42 67 0 73 7 42 48 -14 18 -71 15
-90 -6z"/>
</g>
</svg>
