<svg version="1" xmlns="http://www.w3.org/2000/svg" width="2538.667" height="2538.667" viewBox="0 0 1904.000000 1904.000000"><path d="M416 498.1c-73.9 5.8-150.3 32.2-211.9 73.1-42.5 28.2-80.3 63.5-111.3 104C39.7 744.3 7.7 827.9 1 914.9c-1.3 17.4-1.3 51.9 0 69.2 10.9 140.5 85 266.9 202.1 344.6 64.8 43.1 136.9 67.7 217.2 74.3 18.9 1.6 63.3.8 81.7-1.5 42.6-5.1 81.1-14.5 116-28.3 114.2-44.9 205-132.9 253.2-245.1 41-95.8 47.5-207 17.8-306.7-22.5-75.4-61.8-140-119.1-195.9-36.6-35.7-72.9-61.1-119.4-83.6-50.3-24.3-102.6-38.7-157.6-43.4-18.6-1.6-59.2-1.8-76.9-.4zm-63.5 330.3c2.8 1.3 7 3.9 9.4 5.9l4.4 3.5 4.6-3.6c6.4-4.9 12.3-7.1 21.4-8.3 18.3-2.3 33.6 5.3 40.6 20.1l2.6 5.5.3 39.2.3 39.3H413v-33.5c0-31-.1-33.9-1.9-37.3-3.8-7.4-8.7-10.2-17.8-10.2-8.4 0-13.5 2.8-16.7 9.3l-2.6 5.1V930h-23v-31.8c0-20.1-.4-33.2-1.1-35.7-2.7-9.6-9.2-13.9-20.3-13.3-8.5.4-12.9 2.9-15.7 9.2-1.7 3.7-1.9 7.1-1.9 37.8V930h-24V827h25v3.5c0 4 .7 4.3 4.1 1.6 9.3-7.2 24.4-8.8 35.4-3.7zm185.2-.7c2.1.8 6.5 3.5 9.9 5.8l6.1 4.4 3.6-3c12.6-10.4 33.4-12.4 48-4.7 7.1 3.8 11.1 8.2 15.1 16.8l3.1 6.5.3 38.2.3 38.3h-22l-.3-34.3c-.3-38.2-.3-37.9-7.5-43.4-3.1-2.4-4.7-2.8-11.2-3.1-9.5-.3-14.2 2-17.8 8.7-2.3 4.4-2.3 4.8-2.3 38.3V930h-23v-31.3c0-17.1-.4-32.9-.9-35-2.2-9.3-9.3-14.7-19.4-14.7-10.5 0-16.6 4.6-18.6 14-.7 3.1-1.1 17.5-1.1 36v31h-23V827h23v3.5c0 3.8 1.8 4.7 4.1 1.9 5.3-6.4 23.5-9 33.6-4.7zm71.8 142.2c-1.1 1-8 7.5-15.3 14.5L580.9 997h-20l9.8-14.5 9.8-14.4 15.5-.1c15.1 0 15.4 0 13.5 1.9zM424 980.5V992h-24v-23h24v11.5zm68 13.5v15h15v17.9l-7.2.3-7.3.3-.2 29.5c-.2 22.2 0 30.1 1 32 1.1 2.1 2.1 2.6 7.2 3l6 .5.3 10.7.3 10.8h-6.8c-9.9 0-13.7-.9-19.5-4.4-4.2-2.5-5.9-4.3-8.3-9l-3-6-.5-33.5-.5-33.6-5.2-.3-5.3-.3V1009h11v-30h23v15zm-68 67.5v52.5h-24v-105h24v52.5zm162.5-51.5c19.8 3.2 33.5 16.4 36.5 35 .5 3.6 1 10.9 1 16.2v9.8h-64v2.8c0 4.5 4.1 11.4 8.8 14.6 3.4 2.4 5.6 3.1 10.8 3.4 7.7.5 13.3-1.3 20.1-6.5 2.5-1.9 5.1-3.2 5.8-2.9 2.6.9 15.5 12 15.5 13.2 0 2.1-10 10.3-16.3 13.3-8 3.9-17.8 5.5-27.5 4.7-28.3-2.6-42.1-19.7-42.2-52.2 0-28 12.2-46.1 34.4-50.9 7.6-1.7 9.6-1.7 17.1-.5zm-239.3 3.8c6.3 2.3 15.8 8.4 20.2 13l2.9 3.1-5.4 4.9c-3 2.7-6.7 6-8.4 7.4l-2.9 2.6-4.8-4.3c-5.7-5.1-11.6-7-19.6-6.2-15.5 1.4-22.9 11.7-22 31 .3 8.1.8 10 3.4 14.7 4.5 7.9 10.3 11.4 20.1 11.8 6.4.4 8 .1 12.8-2.3 3-1.4 6.3-3.7 7.4-5.1 1-1.3 2.3-2.4 2.7-2.4.5 0 4.5 3.4 8.9 7.4l8 7.4-4.4 3.9c-5.5 4.8-15.4 11-20 12.4-5.8 1.8-20.5 2.3-27.4.9-17-3.3-28.6-13.9-33.9-31-3-9.8-3.2-29.2-.4-38.5 5.2-17.3 15.5-27.5 32-31.7 9.1-2.3 22.7-1.9 30.8 1z"/><path d="M571 1032.6c-5.2 2.3-8.8 6.2-11 12.1-1.1 3-2 5.8-2 6.3 0 .6 8 1 20.5 1 22.9 0 21.5.6 19-7.6-3.2-10.8-15.8-16.4-26.5-11.8zM1424.2 502.1c-69 3.3-139.7 23.9-200.1 58.6-93.6 53.6-165.4 139.7-201.6 241.8-31.7 89.6-34.4 189.6-7.5 280.1 53.8 180.2 213.2 309.1 399.9 323.4 17.4 1.3 51.9 1.3 69.2 0 118.8-9.2 228-63.7 305.8-152.5 78.3-89.4 117.9-202.9 112.1-321.3-4.6-94.6-37.8-183.9-96-257.7-46-58.5-107.2-105.8-175-135.3-51.8-22.4-103-34.3-161.5-37.2-21.7-1.1-21.4-1.1-45.3.1zm53.8 316.8c32.6 9.3 52.7 28.4 61.4 58.5 6.5 22.2 4.8 44.5-5.6 73.1-4 11.1-12.7 29.6-40.8 87-8.3 17-20.1 41.2-26.2 53.7l-11.1 22.8h-28.9c-15.8 0-28.8-.3-28.8-.6 0-.6 16.1-32 50.7-99.2 5.8-11.2 10.3-20.6 10-20.8-.3-.3-2.2-.1-4.4.5-5.5 1.6-25.6 1.3-33.8-.4-13.8-2.9-31-13.4-40.4-24.5-8.6-10.2-15.2-23.4-18.8-37.6-2.5-9.8-2.5-38.3 0-47.4 5.1-18.8 12.7-32.4 24.2-43.5 9.2-8.9 19-14.7 32-19.1 14.2-4.7 18.8-5.3 37-4.9 12.5.2 17.6.8 23.5 2.4z"/><path d="M1434.6 867.5c-15 6.1-23.6 20.7-23.6 40 0 18.5 7.9 33.1 21.7 40.1 5.4 2.7 6.6 2.9 17.3 2.9 10.3 0 12-.3 16.5-2.5 14.8-7.4 22.2-22.2 21.2-42.5-.5-11.4-2.3-18.1-6.8-24.8-3.9-5.9-9.5-10.3-16.7-13.3-8.2-3.4-21.3-3.3-29.6.1z"/></svg>